<svg xmlns="http://www.w3.org/2000/svg" width="48" height="48" viewBox="0 0 48 48" fill="none">
  <rect width="48" height="48" rx="24" fill="white"/>
  <path d="M24.2969 16.7692C25.4063 16.7692 26.7969 16.0064 27.625 14.9892C28.375 14.0674 28.9219 12.78 28.9219 11.4927C28.9219 11.3179 28.9062 11.143 28.875 11C27.6406 11.0477 26.1563 11.8423 25.2656 12.9072C24.5625 13.7177 23.9219 14.9892 23.9219 16.2924C23.9219 16.4832 23.9531 16.6739 23.9688 16.7374C24.0469 16.7533 24.1719 16.7692 24.2969 16.7692ZM20.3906 36C21.9062 36 22.5781 34.9669 24.4688 34.9669C26.3906 34.9669 26.8125 35.9682 28.5 35.9682C30.1562 35.9682 31.2656 34.4107 32.3125 32.8849C33.4844 31.1367 33.9688 29.4202 34 29.3407C33.8906 29.309 30.7188 27.9898 30.7188 24.2867C30.7188 21.0763 33.2188 19.63 33.3594 19.5188C31.7031 17.103 29.1875 17.0394 28.5 17.0394C26.6406 17.0394 25.125 18.1837 24.1719 18.1837C23.1406 18.1837 21.7812 17.103 20.1719 17.103C17.1094 17.103 14 19.6777 14 24.541C14 27.5607 15.1562 30.7552 16.5781 32.8214C17.7969 34.5696 18.8594 36 20.3906 36Z" fill="black"/>
</svg>
