<svg width="18" height="18" viewBox="0 0 18 18" fill="none" xmlns="http://www.w3.org/2000/svg">
<g id="System icon">
<rect width="18" height="18" fill="none"/>
<path id="Subtract" fill-rule="evenodd" clip-rule="evenodd" d="M9 15.75C12.7279 15.75 15.75 12.7279 15.75 9C15.75 5.27208 12.7279 2.25 9 2.25C5.27208 2.25 2.25 5.27208 2.25 9C2.25 12.7279 5.27208 15.75 9 15.75ZM6.35225 11.6477C6.13258 11.4281 6.13258 11.0719 6.35225 10.8523L8.2045 9L6.35225 7.14775C6.13258 6.92808 6.13258 6.57192 6.35225 6.35225C6.57192 6.13258 6.92808 6.13258 7.14775 6.35225L9 8.2045L10.8523 6.35225C11.0719 6.13258 11.4281 6.13258 11.6477 6.35225C11.8674 6.57192 11.8674 6.92808 11.6477 7.14775L9.7955 9L11.6477 10.8523C11.8674 11.0719 11.8674 11.4281 11.6477 11.6477C11.4281 11.8674 11.0719 11.8674 10.8523 11.6477L9 9.7955L7.14775 11.6477C6.92808 11.8674 6.57192 11.8674 6.35225 11.6477Z" fill="#FB4A4A"/>
</g>
</svg>
