<svg width="18" height="18" viewBox="0 0 18 18" fill="none" xmlns="http://www.w3.org/2000/svg">
<g id="System icon">
<rect width="18" height="18" fill="none"/>
<path id="Subtract" fill-rule="evenodd" clip-rule="evenodd" d="M9 15.75C12.7279 15.75 15.75 12.7279 15.75 9C15.75 5.27208 12.7279 2.25 9 2.25C5.27208 2.25 2.25 5.27208 2.25 9C2.25 12.7279 5.27208 15.75 9 15.75ZM11.6583 7.88686C11.872 7.66133 11.8624 7.30531 11.6369 7.09165C11.4113 6.878 11.0553 6.88762 10.8417 7.11314L8.4079 9.68211L7.15835 8.36314C6.94469 8.13762 6.58867 8.128 6.36314 8.34165C6.13762 8.55531 6.128 8.91133 6.34165 9.13686L7.99955 10.8869C8.10578 10.999 8.25344 11.0625 8.4079 11.0625C8.56235 11.0625 8.71002 10.999 8.81624 10.8869L11.6583 7.88686Z" fill="#5E31FF"/>
</g>
</svg>
