<svg width="18" height="18" viewBox="0 0 18 18" fill="none" xmlns="http://www.w3.org/2000/svg">
<rect width="18" height="18" fill="none"/>
<path fill-rule="evenodd" clip-rule="evenodd" d="M9 3.5625C5.99695 3.5625 3.5625 5.99695 3.5625 9C3.5625 12.003 5.99695 14.4375 9 14.4375C12.003 14.4375 14.4375 12.003 14.4375 9C14.4375 5.99695 12.003 3.5625 9 3.5625ZM2.4375 9C2.4375 5.37563 5.37563 2.4375 9 2.4375C12.6244 2.4375 15.5625 5.37563 15.5625 9C15.5625 12.6244 12.6244 15.5625 9 15.5625C5.37563 15.5625 2.4375 12.6244 2.4375 9Z" fill="#7E7E7E"/>
<path fill-rule="evenodd" clip-rule="evenodd" d="M11.6369 7.09165C11.8624 7.30531 11.872 7.66133 11.6583 7.88686L8.81624 10.8869C8.71002 10.999 8.56235 11.0625 8.4079 11.0625C8.25344 11.0625 8.10578 10.999 7.99955 10.8869L6.34165 9.13686C6.128 8.91133 6.13762 8.55531 6.36314 8.34165C6.58867 8.128 6.94469 8.13762 7.15835 8.36314L8.4079 9.68211L10.8417 7.11314C11.0553 6.88762 11.4113 6.878 11.6369 7.09165Z" fill="#7E7E7E"/>
</svg>
