<svg width="48" height="48" viewBox="0 0 48 48" fill="none" xmlns="http://www.w3.org/2000/svg">
<rect width="48" height="48" rx="24" fill="white"/>
<path fill-rule="evenodd" clip-rule="evenodd" d="M24 16.64C26.2533 16.64 27.7733 17.6133 28.64 18.4267L32.0266 15.12C29.9466 13.1867 27.24 12 24 12C19.3066 12 15.2533 14.6933 13.28 18.6133L17.16 21.6267C18.1333 18.7333 20.8266 16.64 24 16.64Z" fill="#EA4335"/>
<path fill-rule="evenodd" clip-rule="evenodd" d="M35.52 24.2665C35.52 23.2798 35.44 22.5598 35.2667 21.8132H24V26.2665H30.6133C30.48 27.3732 29.76 29.0398 28.16 30.1598L31.9467 33.0932C34.2133 30.9998 35.52 27.9198 35.52 24.2665Z" fill="#4285F4"/>
<path fill-rule="evenodd" clip-rule="evenodd" d="M17.1733 26.3733C16.92 25.6266 16.7733 24.8266 16.7733 23.9999C16.7733 23.1733 16.92 22.3733 17.16 21.6266L13.28 18.6133C12.4667 20.2399 12 22.0666 12 23.9999C12 25.9333 12.4667 27.7599 13.28 29.3866L17.1733 26.3733Z" fill="#FBBC05"/>
<path fill-rule="evenodd" clip-rule="evenodd" d="M23.9996 36.0004C27.2396 36.0004 29.9596 34.9337 31.9463 33.0937L28.1596 30.1604C27.1463 30.8671 25.7863 31.3604 23.9996 31.3604C20.8263 31.3604 18.133 29.2671 17.173 26.3737L13.293 29.3871C15.2663 33.3071 19.3063 36.0004 23.9996 36.0004Z" fill="#34A853"/>
</svg>
