<svg xmlns="http://www.w3.org/2000/svg" width="48" height="48" viewBox="0 0 48 48" fill="none">
  <rect width="48" height="48" rx="24" fill="#FEE500"/>
  <path d="M24.5 15C26.3984 15 28.1543 15.3619 29.7676 16.0857C31.3809 16.8095 32.6563 17.7937 33.5937 19.0383C34.5312 20.2829 35 21.6405 35 23.1111C35 24.5817 34.5312 25.9412 33.5937 27.1897C32.6563 28.4381 31.3828 29.4243 29.7734 30.1481C28.164 30.8718 26.4062 31.2338 24.5 31.2338C23.8984 31.2338 23.2773 31.1916 22.6367 31.1074C19.8554 32.9992 18.375 33.9566 18.1953 33.9796C18.1094 34.0102 18.0273 34.0064 17.9492 33.9681C17.918 33.9451 17.8945 33.9145 17.8789 33.8762C17.8633 33.8379 17.8555 33.8034 17.8555 33.7728V33.7268C17.9024 33.4281 18.2578 32.1835 18.9219 29.993C17.4141 29.2577 16.2168 28.283 15.3301 27.069C14.4434 25.8551 14 24.5358 14 23.1111C14 21.6405 14.4688 20.2829 15.4063 19.0383C16.3438 17.7937 17.6191 16.8095 19.2324 16.0857C20.8457 15.3619 22.6016 15 24.5 15Z" fill="black"/>
</svg>
