<svg width="28" height="28" viewBox="0 0 28 28" fill="none" xmlns="http://www.w3.org/2000/svg">
<g id="System icon">
<rect width="28" height="28" fill="none"/>
<path id="Union" fill-rule="evenodd" clip-rule="evenodd" d="M14.6187 20.3813C14.9604 20.723 14.9604 21.277 14.6187 21.6187C14.277 21.9604 13.723 21.9604 13.3813 21.6187L6.38128 14.6187C6.03957 14.277 6.03957 13.723 6.38128 13.3813L13.3813 6.38128C13.723 6.03957 14.277 6.03957 14.6187 6.38128C14.9604 6.72299 14.9604 7.27701 14.6187 7.61872L9.11244 13.125L21 13.125C21.4832 13.125 21.875 13.5167 21.875 14C21.875 14.4832 21.4832 14.875 21 14.875L9.11244 14.875L14.6187 20.3813Z" fill="black"/>
</g>
</svg>
