<svg width="28" height="28" viewBox="0 0 28 28" fill="none" xmlns="http://www.w3.org/2000/svg">
<rect width="28" height="28" fill="none"/>
<path fill-rule="evenodd" clip-rule="evenodd" d="M6.1765 12.5859C6.1765 9.05874 8.99313 6.19943 12.4676 6.19943C15.9421 6.19943 18.7587 9.05874 18.7587 12.5859C18.7587 16.113 15.9421 18.9723 12.4676 18.9723C8.99313 18.9723 6.1765 16.113 6.1765 12.5859ZM12.4676 4.66669C8.15925 4.66669 4.66663 8.21223 4.66663 12.5859C4.66663 16.9595 8.15925 20.5051 12.4676 20.5051C14.3919 20.5051 16.1534 19.7978 17.5137 18.6254L21.9065 23.0848C22.2329 23.4162 22.7622 23.4162 23.0886 23.0848C23.415 22.7535 23.415 22.2163 23.0886 21.8849L18.6658 17.3952C19.6712 16.0619 20.2686 14.3947 20.2686 12.5859C20.2686 8.21223 16.776 4.66669 12.4676 4.66669Z" fill="black"/>
</svg>
