<svg width="30" height="31" viewBox="0 0 30 31" fill="none" xmlns="http://www.w3.org/2000/svg">
<g id="Component 5">
<rect width="30" height="30" transform="translate(0 0.5)" fill="white"/>
<path id="Union" fill-rule="evenodd" clip-rule="evenodd" d="M5.95322 8.9375C5.95322 8.60095 6.22604 8.32812 6.56259 8.32812H23.4376C23.7741 8.32812 24.047 8.60095 24.047 8.9375C24.047 9.27405 23.7741 9.54688 23.4376 9.54688H6.56259C6.22604 9.54688 5.95322 9.27405 5.95322 8.9375ZM5.95322 15.5C5.95322 15.1635 6.22604 14.8906 6.56259 14.8906H23.4376C23.7741 14.8906 24.047 15.1635 24.047 15.5C24.047 15.8365 23.7741 16.1094 23.4376 16.1094H6.56259C6.22604 16.1094 5.95322 15.8365 5.95322 15.5ZM6.56259 21.4531C6.22604 21.4531 5.95322 21.726 5.95322 22.0625C5.95322 22.399 6.22604 22.6719 6.56259 22.6719H23.4376C23.7741 22.6719 24.047 22.399 24.047 22.0625C24.047 21.726 23.7741 21.4531 23.4376 21.4531H6.56259Z" fill="#BFBFBF"/>
</g>
</svg>
